<?xml version="1.0" encoding="UTF-8" standalone="no"?>
<svg
   xmlns:dc="http://purl.org/dc/elements/1.1/"
   xmlns:cc="http://creativecommons.org/ns#"
   xmlns:rdf="http://www.w3.org/1999/02/22-rdf-syntax-ns#"
   xmlns:svg="http://www.w3.org/2000/svg"
   xmlns="http://www.w3.org/2000/svg"
   xmlns:sodipodi="http://sodipodi.sourceforge.net/DTD/sodipodi-0.dtd"
   xmlns:inkscape="http://www.inkscape.org/namespaces/inkscape"
   width="72pt"
   height="72pt"
   viewBox="0 0 72 72"
   version="1.1"
   id="svg2"
   inkscape:version="0.48.4 r9939"
   sodipodi:docname="ic_launcher.svg">
  <metadata
     id="metadata88">
    <rdf:RDF>
      <cc:Work
         rdf:about="">
        <dc:format>image/svg+xml</dc:format>
        <dc:type
           rdf:resource="http://purl.org/dc/dcmitype/StillImage" />
      </cc:Work>
    </rdf:RDF>
  </metadata>
  <defs
     id="defs86" />
  <sodipodi:namedview
     pagecolor="#ffffff"
     bordercolor="#666666"
     borderopacity="1"
     objecttolerance="10"
     gridtolerance="10"
     guidetolerance="10"
     inkscape:pageopacity="0"
     inkscape:pageshadow="2"
     inkscape:window-width="1551"
     inkscape:window-height="1176"
     id="namedview84"
     showgrid="false"
     inkscape:zoom="7.4167645"
     inkscape:cx="40.695825"
     inkscape:cy="66.382005"
     inkscape:window-x="49"
     inkscape:window-y="24"
     inkscape:window-maximized="1"
     inkscape:current-layer="svg2" />
  <path
     fill="#151515"
     d=" M 38.17 11.42 C 42.71 10.57 46.52 13.77 50.88 14.32 C 52.99 17.47 56.54 19.23 58.81 22.23 C 59.62 26.16 55.72 28.79 54.03 31.90 C 59.15 35.80 63.43 40.79 66.29 46.58 C 67.49 50.65 68.41 55.46 66.37 59.39 C 62.37 61.76 58.06 64.14 53.21 63.24 C 44.38 61.35 35.12 59.72 27.64 54.29 C 20.92 49.15 12.71 45.31 8.33 37.71 C 6.16 33.37 2.45 29.22 3.55 23.99 C 4.71 21.81 5.48 19.00 7.79 17.74 C 16.18 14.71 25.39 16.35 33.47 19.59 C 34.48 17.86 35.39 15.97 37.21 14.94 C 37.60 13.83 37.16 12.21 38.17 11.42 Z"
     id="path6" />
  <path
     fill="#8f7022"
     d=" M 40.48 15.55 C 38.92 14.85 38.73 13.96 39.90 12.87 C 40.12 13.40 40.56 14.45 40.78 14.98 L 40.48 15.55 Z"
     id="path8" />
  <path
     fill="#d2d2d2"
     d=" M 39.90 12.87 C 42.71 14.40 45.82 15.22 48.72 16.55 C 51.72 18.85 54.56 21.41 57.02 24.30 C 55.18 23.81 53.36 23.26 51.68 22.35 C 51.53 22.28 51.21 22.13 51.06 22.05 L 50.62 21.83 C 47.82 18.93 44.60 16.40 40.78 14.98 C 40.56 14.45 40.12 13.40 39.90 12.87 Z"
     id="path10" />
  <path
     fill="#727272"
     d=" M 40.48 15.55 L 40.78 14.98 C 41.76 16.00 42.75 17.00 43.81 17.94 C 43.25 19.23 42.67 20.52 42.18 21.84 C 39.94 20.05 37.95 23.86 40.82 24.55 C 41.30 24.87 42.27 25.50 42.76 25.81 C 42.85 26.88 42.94 27.95 43.04 29.02 C 41.60 28.26 40.16 27.51 38.73 26.76 C 38.03 27.08 37.34 27.39 36.65 27.71 C 36.33 27.42 35.68 26.84 35.35 26.56 C 36.02 24.99 36.68 23.42 37.33 21.84 C 36.70 21.97 35.43 22.24 34.80 22.37 C 35.17 21.87 35.89 20.87 36.26 20.37 C 36.81 20.12 37.92 19.61 38.47 19.36 C 39.35 18.20 39.86 16.84 40.48 15.55 Z"
     id="path12" />
  <path
     fill="#ebe59f"
     d=" M 40.78 14.98 C 44.60 16.40 47.82 18.93 50.62 21.83 C 49.49 21.29 48.36 20.77 47.22 20.26 C 46.05 19.54 44.91 18.76 43.81 17.94 C 42.75 17.00 41.76 16.00 40.78 14.98 Z"
     id="path14" />
  <path
     fill="#616c73"
     d=" M 13.55 18.62 C 15.41 18.27 17.31 18.13 19.20 18.15 L 19.02 18.63 C 18.93 18.87 18.74 19.35 18.65 19.59 C 19.77 20.02 20.88 20.44 22.00 20.87 C 22.91 20.36 23.82 19.85 24.73 19.34 C 28.21 19.96 31.37 21.62 34.80 22.37 C 34.35 23.16 33.91 23.95 33.48 24.75 C 32.87 24.13 32.28 23.50 31.69 22.86 C 31.57 24.39 31.45 25.91 31.32 27.43 C 29.13 26.80 28.43 25.44 29.22 23.33 C 28.19 23.64 27.19 24.06 26.17 24.41 C 25.90 23.73 25.37 22.37 25.10 21.70 C 25.25 22.85 25.42 24.00 25.58 25.16 C 26.57 25.48 27.57 25.81 28.57 26.14 C 29.01 28.54 29.50 30.94 30.10 33.31 C 28.23 33.70 26.36 34.04 24.47 34.31 C 26.05 34.94 28.27 35.03 28.58 37.12 C 26.69 36.71 24.81 36.24 22.94 35.76 C 22.86 32.00 22.75 28.25 22.52 24.49 C 21.35 26.05 20.17 27.60 19.01 29.16 C 17.39 29.19 15.77 29.20 14.16 29.13 C 13.87 27.95 13.58 26.78 13.29 25.61 C 11.21 25.17 9.13 24.73 7.06 24.28 C 7.41 23.09 7.78 21.90 8.17 20.72 C 8.54 20.41 9.29 19.78 9.66 19.47 C 11.71 21.05 14.20 22.95 16.67 20.90 C 15.65 20.12 14.61 19.36 13.55 18.62 Z"
     id="path16" />
  <path
     fill="#a07703"
     d=" M 19.20 18.15 C 20.75 17.84 22.58 18.39 23.80 19.36 C 23.05 20.94 19.62 20.26 19.02 18.63 L 19.20 18.15 Z"
     id="path18" />
  <path
     fill="#c09500"
     d=" M 36.26 20.37 C 34.62 18.78 38.29 17.13 38.47 19.36 C 37.92 19.61 36.81 20.12 36.26 20.37 Z"
     id="path20" />
  <path
     fill="#d2d2d2"
     d=" M 43.81 17.94 C 44.91 18.76 46.05 19.54 47.22 20.26 C 46.67 20.22 45.58 20.14 45.03 20.10 C 45.08 22.01 45.16 23.92 45.22 25.83 C 44.60 25.82 43.37 25.82 42.76 25.81 C 42.27 25.50 41.30 24.87 40.82 24.55 C 41.16 23.87 41.84 22.52 42.18 21.84 C 42.67 20.52 43.25 19.23 43.81 17.94 Z"
     id="path22" />
  <path
     fill="#b48b08"
     d=" M 9.26 19.19 C 10.69 18.95 12.11 18.76 13.55 18.62 C 14.61 19.36 15.65 20.12 16.67 20.90 C 14.20 22.95 11.71 21.05 9.66 19.47 L 9.26 19.19 Z"
     id="path24" />
  <path
     fill="#88877f"
     d=" M 47.22 20.26 C 48.36 20.77 49.49 21.29 50.62 21.83 L 51.06 22.05 C 49.60 22.57 48.28 22.42 47.07 21.61 C 46.55 22.13 46.04 22.67 45.53 23.20 C 46.25 24.05 46.96 24.91 47.66 25.79 C 45.50 24.57 45.98 28.35 47.79 26.61 L 48.00 27.95 C 47.00 28.08 46.01 28.20 45.02 28.33 C 44.07 29.49 43.11 30.66 42.15 31.82 C 40.27 30.52 38.39 29.20 36.65 27.71 C 37.34 27.39 38.03 27.08 38.73 26.76 C 40.16 27.51 41.60 28.26 43.04 29.02 C 42.94 27.95 42.85 26.88 42.76 25.81 C 43.37 25.82 44.60 25.82 45.22 25.83 C 45.16 23.92 45.08 22.01 45.03 20.10 C 45.58 20.14 46.67 20.22 47.22 20.26 Z"
     id="path26" />
  <path
     fill="#c09500"
     d=" M 6.12 28.84 C 4.26 26.00 6.37 22.94 8.17 20.72 C 7.78 21.90 7.41 23.09 7.06 24.28 C 9.13 24.73 11.21 25.17 13.29 25.61 C 13.58 26.78 13.87 27.95 14.16 29.13 C 11.92 28.92 9.70 28.52 7.48 28.13 C 8.69 30.13 9.92 32.12 11.05 34.16 C 11.55 35.10 11.82 36.08 11.86 37.12 L 11.22 37.46 C 9.13 35.00 7.98 31.61 6.12 28.84 Z"
     id="path28" />
  <path
     fill="#323232"
     d=" M 25.58 25.16 C 25.42 24.00 25.25 22.85 25.10 21.70 C 25.37 22.37 25.90 23.73 26.17 24.41 C 27.19 24.06 28.19 23.64 29.22 23.33 C 28.43 25.44 29.13 26.80 31.32 27.43 C 31.45 25.91 31.57 24.39 31.69 22.86 C 32.28 23.50 32.87 24.13 33.48 24.75 C 33.95 25.20 34.89 26.10 35.35 26.56 C 35.68 26.84 36.33 27.42 36.65 27.71 C 38.39 29.20 40.27 30.52 42.15 31.82 C 44.51 33.83 47.37 34.96 50.42 35.38 C 49.61 37.17 48.71 38.92 47.73 40.62 C 46.13 42.33 48.66 43.64 50.22 43.45 C 50.22 45.78 50.55 48.10 50.91 50.40 C 51.85 49.27 52.79 48.15 53.74 47.03 C 53.99 47.56 54.47 48.60 54.72 49.13 C 54.37 50.18 54.02 51.24 53.67 52.29 L 53.47 52.88 C 53.32 52.89 53.02 52.91 52.86 52.92 C 51.59 51.67 50.39 50.37 49.19 49.05 C 48.87 50.73 48.55 52.41 48.23 54.08 C 48.05 53.74 47.71 53.07 47.53 52.73 C 48.21 51.15 48.90 49.56 49.60 47.99 C 48.26 42.58 42.86 40.67 38.27 38.83 C 37.75 38.56 36.73 38.02 36.22 37.75 L 35.57 37.42 C 34.12 37.51 32.68 37.74 31.26 37.99 C 32.05 36.95 32.87 35.93 33.69 34.92 C 32.49 34.37 31.30 33.83 30.10 33.31 C 29.50 30.94 29.01 28.54 28.57 26.14 C 27.57 25.81 26.57 25.48 25.58 25.16 Z"
     id="path30" />
  <path
     fill="#a2a2a2"
     d=" M 34.80 22.37 C 35.43 22.24 36.70 21.97 37.33 21.84 C 36.68 23.42 36.02 24.99 35.35 26.56 C 34.89 26.10 33.95 25.20 33.48 24.75 C 33.91 23.95 34.35 23.16 34.80 22.37 Z"
     id="path32" />
  <path
     fill="#d3d2a2"
     d=" M 40.82 24.55 C 37.95 23.86 39.94 20.05 42.18 21.84 C 41.84 22.52 41.16 23.87 40.82 24.55 Z"
     id="path34" />
  <path
     d=" M 45.53 23.20 C 46.04 22.67 46.55 22.13 47.07 21.61 C 48.28 22.42 49.60 22.57 51.06 22.05 C 51.21 22.13 51.53 22.28 51.68 22.35 C 51.33 23.08 50.64 24.52 50.29 25.25 L 50.55 26.27 C 50.89 27.62 51.22 28.98 51.49 30.36 C 51.55 31.18 51.48 31.99 51.28 32.79 C 51.02 33.67 50.73 34.53 50.42 35.38 C 47.37 34.96 44.51 33.83 42.15 31.82 C 43.11 30.66 44.07 29.49 45.02 28.33 C 46.01 28.20 47.00 28.08 48.00 27.95 L 47.79 26.61 L 47.66 25.79 C 46.96 24.91 46.25 24.05 45.53 23.20 Z"
     id="path36"
     fill="#575757" />
  <path
     fill="#474957"
     d=" M 19.01 29.16 C 20.17 27.60 21.35 26.05 22.52 24.49 C 22.75 28.25 22.86 32.00 22.94 35.76 C 24.81 36.24 26.69 36.71 28.58 37.12 C 28.27 35.03 26.05 34.94 24.47 34.31 C 26.36 34.04 28.23 33.70 30.10 33.31 C 31.30 33.83 32.49 34.37 33.69 34.92 C 32.87 35.93 32.05 36.95 31.26 37.99 C 30.30 38.38 29.37 38.81 28.44 39.24 C 27.68 37.14 24.40 38.17 25.03 40.33 C 24.70 40.42 24.05 40.61 23.72 40.70 C 22.18 39.02 20.59 37.39 18.94 35.80 C 18.95 33.59 18.97 31.37 19.01 29.16 Z"
     id="path38" />
  <path
     fill="#ebe561"
     d=" M 47.79 26.61 C 45.98 28.35 45.50 24.57 47.66 25.79 L 47.79 26.61 Z"
     id="path40" />
  <path
     fill="#c09500"
     d=" M 50.55 26.27 C 50.80 26.58 51.29 27.21 51.53 27.52 C 52.17 27.58 53.45 27.69 54.09 27.74 C 53.22 28.62 52.35 29.49 51.49 30.36 C 51.22 28.98 50.89 27.62 50.55 26.27 Z"
     id="path42" />
  <path
     fill="#6a7a87"
     d=" M 14.16 29.13 C 15.77 29.20 17.39 29.19 19.01 29.16 C 18.97 31.37 18.95 33.59 18.94 35.80 C 17.65 35.96 16.36 36.11 15.07 36.27 C 14.82 36.00 14.33 35.45 14.08 35.17 C 16.33 33.64 12.69 32.19 11.60 33.84 L 11.05 34.16 C 9.92 32.12 8.69 30.13 7.48 28.13 C 9.70 28.52 11.92 28.92 14.16 29.13 Z"
     id="path44" />
  <path
     fill="#320202"
     d=" M 20.26 29.24 C 20.78 29.76 20.78 29.76 20.26 29.24 Z"
     id="path46" />
  <path
     fill="#3d180e"
     d=" M 21.27 32.44 C 22.56 32.73 22.78 33.49 21.91 34.72 C 20.62 34.44 20.40 33.68 21.27 32.44 Z"
     id="path48" />
  <path
     fill="#443d45"
     d=" M 11.60 33.84 C 12.69 32.19 16.33 33.64 14.08 35.17 C 13.46 34.84 12.22 34.18 11.60 33.84 Z"
     id="path50" />
  <path
     fill="#5a646c"
     d=" M 51.28 32.79 C 55.01 35.52 57.75 39.40 61.59 41.94 C 59.67 44.25 56.52 43.54 53.92 44.30 C 55.62 44.31 57.33 44.11 59.02 44.30 C 60.76 45.77 62.52 47.25 64.58 48.27 L 64.82 48.41 C 65.14 49.84 65.17 51.27 64.93 52.70 C 63.68 51.72 62.43 50.73 61.19 49.75 C 60.81 50.32 60.06 51.45 59.68 52.02 C 61.08 53.30 62.48 54.59 63.94 55.81 C 62.19 55.74 60.43 55.76 58.68 55.76 C 59.03 56.43 59.74 57.77 60.10 58.44 C 59.70 58.62 58.90 58.98 58.50 59.16 C 58.35 58.85 58.07 58.23 57.92 57.92 C 58.59 53.71 58.53 49.35 56.10 45.66 C 56.22 48.56 56.76 51.49 56.33 54.39 C 55.97 52.99 55.09 52.29 53.67 52.29 C 54.02 51.24 54.37 50.18 54.72 49.13 C 54.47 48.60 53.99 47.56 53.74 47.03 C 52.79 48.15 51.85 49.27 50.91 50.40 C 50.55 48.10 50.22 45.78 50.22 43.45 C 50.59 41.88 49.28 40.58 47.73 40.62 C 48.71 38.92 49.61 37.17 50.42 35.38 C 50.73 34.53 51.02 33.67 51.28 32.79 Z"
     id="path52" />
  <path
     fill="#838178"
     d=" M 11.05 34.16 L 11.60 33.84 C 12.22 34.18 13.46 34.84 14.08 35.17 C 14.33 35.45 14.82 36.00 15.07 36.27 C 14.75 36.44 14.11 36.77 13.78 36.94 C 13.30 36.98 12.34 37.07 11.86 37.12 C 11.82 36.08 11.55 35.10 11.05 34.16 Z"
     id="path54" />
  <path
     fill="#9c6d00"
     d=" M 15.07 36.27 C 16.36 36.11 17.65 35.96 18.94 35.80 C 20.59 37.39 22.18 39.02 23.72 40.70 C 22.96 40.99 21.44 41.58 20.68 41.87 C 20.03 41.91 18.73 41.99 18.07 42.03 C 16.82 40.19 15.32 38.54 13.78 36.94 C 14.11 36.77 14.75 36.44 15.07 36.27 Z"
     id="path56" />
  <path
     fill="#c09500"
     d=" M 11.86 37.12 C 12.34 37.07 13.30 36.98 13.78 36.94 C 15.32 38.54 16.82 40.19 18.07 42.03 C 18.58 43.16 19.52 44.38 20.93 44.16 C 24.39 46.92 27.93 49.70 31.94 51.64 C 34.46 52.34 36.88 53.40 38.88 55.13 C 37.55 55.29 36.22 55.42 34.89 55.53 C 30.53 53.75 26.96 50.57 23.03 48.04 C 18.80 45.17 14.12 42.34 11.48 37.88 L 11.86 37.12 Z"
     id="path58" />
  <path
     fill="#5b636c"
     d=" M 31.26 37.99 C 32.68 37.74 34.12 37.51 35.57 37.42 L 36.22 37.75 C 35.43 39.74 33.41 42.06 34.82 44.23 C 35.70 45.27 36.77 47.03 38.38 46.42 C 38.68 43.89 38.42 41.35 38.27 38.83 C 42.86 40.67 48.26 42.58 49.60 47.99 C 48.90 49.56 48.21 51.15 47.53 52.73 C 47.71 53.07 48.05 53.74 48.23 54.08 C 48.55 52.41 48.87 50.73 49.19 49.05 C 50.39 50.37 51.59 51.67 52.86 52.92 C 52.01 53.00 50.31 53.17 49.46 53.26 C 50.60 55.26 51.75 57.24 52.90 59.23 C 51.64 58.92 50.38 58.61 49.12 58.30 C 47.59 55.66 45.85 53.09 43.27 51.37 C 43.32 52.63 43.38 53.89 43.44 55.15 C 42.65 54.40 41.86 53.64 41.08 52.89 C 41.03 53.69 40.94 55.30 40.89 56.11 L 40.01 55.80 C 39.96 53.94 39.99 52.07 40.01 50.21 C 37.74 49.12 35.47 48.04 33.18 46.99 C 32.76 48.54 32.35 50.09 31.94 51.64 C 27.93 49.70 24.39 46.92 20.93 44.16 C 20.87 43.59 20.74 42.44 20.68 41.87 C 21.44 41.58 22.96 40.99 23.72 40.70 C 24.05 40.61 24.70 40.42 25.03 40.33 C 26.24 40.18 27.37 39.82 28.44 39.24 C 29.37 38.81 30.30 38.38 31.26 37.99 Z"
     id="path60" />
  <path
     fill="#787b80"
     d=" M 25.03 40.33 C 24.40 38.17 27.68 37.14 28.44 39.24 C 27.37 39.82 26.24 40.18 25.03 40.33 Z"
     id="path62" />
  <path
     fill="#8e8f8e"
     d=" M 36.22 37.75 C 36.73 38.02 37.75 38.56 38.27 38.83 C 38.42 41.35 38.68 43.89 38.38 46.42 C 36.77 47.03 35.70 45.27 34.82 44.23 C 33.41 42.06 35.43 39.74 36.22 37.75 Z"
     id="path64" />
  <path
     fill="#787d80"
     d=" M 50.22 43.45 C 48.66 43.64 46.13 42.33 47.73 40.62 C 49.28 40.58 50.59 41.88 50.22 43.45 Z"
     id="path66" />
  <path
     fill="#8a8b7b"
     d=" M 18.07 42.03 C 18.73 41.99 20.03 41.91 20.68 41.87 C 20.74 42.44 20.87 43.59 20.93 44.16 C 19.52 44.38 18.58 43.16 18.07 42.03 Z"
     id="path68" />
  <path
     fill="#757c83"
     d=" M 39.97 42.57 C 41.50 45.85 44.37 47.93 47.66 49.23 C 44.86 50.34 42.06 48.09 39.29 47.60 C 39.53 45.92 39.75 44.25 39.97 42.57 Z"
     id="path70" />
  <path
     fill="#8d690d"
     d=" M 59.02 44.30 C 59.76 44.15 61.25 43.84 61.99 43.68 C 62.95 45.16 63.82 46.68 64.58 48.27 C 62.52 47.25 60.76 45.77 59.02 44.30 Z"
     id="path72" />
  <path
     fill="#434853"
     d=" M 56.33 54.39 C 56.76 51.49 56.22 48.56 56.10 45.66 C 58.53 49.35 58.59 53.71 57.92 57.92 C 57.35 56.95 56.75 55.99 56.14 55.05 L 56.33 54.39 Z"
     id="path74" />
  <path
     fill="#a97800"
     d=" M 33.18 46.99 C 35.47 48.04 37.74 49.12 40.01 50.21 C 39.99 52.07 39.96 53.94 40.01 55.80 L 40.89 56.11 C 43.60 56.95 46.36 57.62 49.12 58.30 C 50.38 58.61 51.64 58.92 52.90 59.23 C 51.75 57.24 50.60 55.26 49.46 53.26 C 50.31 53.17 52.01 53.00 52.86 52.92 C 53.02 52.91 53.32 52.89 53.47 52.88 C 54.19 53.80 55.08 54.53 56.14 55.05 C 56.75 55.99 57.35 56.95 57.92 57.92 C 58.07 58.23 58.35 58.85 58.50 59.16 C 58.90 58.98 59.70 58.62 60.10 58.44 C 61.63 57.76 63.16 57.07 64.69 56.38 L 63.94 55.81 C 62.48 54.59 61.08 53.30 59.68 52.02 C 60.06 51.45 60.81 50.32 61.19 49.75 C 62.43 50.73 63.68 51.72 64.93 52.70 C 65.16 52.88 65.61 53.24 65.84 53.42 C 65.61 55.08 65.87 57.26 64.00 58.07 C 60.41 60.09 56.25 62.57 52.03 61.00 C 46.32 59.16 40.09 58.72 34.89 55.53 C 36.22 55.42 37.55 55.29 38.88 55.13 C 36.88 53.40 34.46 52.34 31.94 51.64 C 32.35 50.09 32.76 48.54 33.18 46.99 Z"
     id="path76" />
  <path
     fill="#767c7f"
     d=" M 43.27 51.37 C 45.85 53.09 47.59 55.66 49.12 58.30 C 46.36 57.62 43.60 56.95 40.89 56.11 C 40.94 55.30 41.03 53.69 41.08 52.89 C 41.86 53.64 42.65 54.40 43.44 55.15 C 43.38 53.89 43.32 52.63 43.27 51.37 Z"
     id="path78" />
  <path
     fill="#8f8b79"
     d=" M 53.67 52.29 C 55.09 52.29 55.97 52.99 56.33 54.39 L 56.14 55.05 C 55.08 54.53 54.19 53.80 53.47 52.88 L 53.67 52.29 Z"
     id="path80" />
  <path
     fill="#3f444c"
     d=" M 58.68 55.76 C 60.43 55.76 62.19 55.74 63.94 55.81 L 64.69 56.38 C 63.16 57.07 61.63 57.76 60.10 58.44 C 59.74 57.77 59.03 56.43 58.68 55.76 Z"
     id="path82" />
  <path
     style="fill:#151515;fill-opacity:1;stroke:none"
     d="m 67.362775,35.130721 -3.411757,-0.650022 -3.521759,-1.567311 -3.297954,-2.095352 2.871735,-5.061146 4.554421,2.183917 3.466904,6.381227 z"
     id="path3837"
     inkscape:connector-curvature="0"
     transform="scale(0.8,0.8)"
     sodipodi:nodetypes="cccccccc" />
  <path
     style="fill:#151515;stroke:none;stroke-width:1px;stroke-linecap:butt;stroke-linejoin:miter;stroke-opacity:1;fill-opacity:1"
     d="m 51.006356,18.686441 1.334746,1.477754 -2.192797,4.862288 -1.287076,-0.90572 -0.810381,-1.525424 z"
     id="path3839"
     inkscape:connector-curvature="0"
     transform="scale(0.8,0.8)" />
</svg>
